<svg height="48" viewBox="0 0 147 48" width="147" xmlns="http://www.w3.org/2000/svg"><g fill="none" fill-rule="evenodd"><path d="m0 0h72v48h-72z" fill="#039" fill-rule="nonzero"/><path d="m35.06 8.91-1.52-1.11h1.88l.58-1.8.58 1.8h1.88l-1.52 1.11.58 1.81-1.52-1.12-1.52 1.12zm1.88 31.29.58 1.8-1.52-1.11-1.52 1.11.58-1.8-1.52-1.11h1.88l.58-1.81.58 1.81h1.88zm-16.48-15-1.52 1.12.58-1.8-1.52-1.08h1.88l.58-1.8.58 1.8h1.89l-1.53 1.12.58 1.8-1.52-1.12zm8.71-14.2.58 1.8-1.52-1.1-1.52 1.11.58-1.8-1.52-1.11h1.88l.58-1.8.58 1.8h1.88zm-7.17 4.62.58-1.8.59 1.8h1.83l-1.52 1.12.58 1.8-1.53-1.12-1.53 1.12.58-1.8-1.52-1.12zm-1.92 15.64h1.92l.58-1.8.59 1.8h1.83l-1.52 1.12.58 1.8-1.53-1.11-1.53 1.11.58-1.8-1.52-1.12zm7.21 6.84-1.52-1.1h1.88l.58-1.8.58 1.8h1.88l-1.52 1.1.58 1.8-1.52-1.11-1.52 1.11zm25.19-13.54.58 1.8-1.52-1.12-1.54 1.12.58-1.8-1.53-1.12h1.95l.58-1.8.58 1.8h1.84zm-9.65-13.56-1.52-1.1h1.88l.58-1.8.58 1.8h1.88l-1.52 1.1.58 1.8-1.52-1.1-1.52 1.11.58-1.8zm6 4.61.59-1.8.58 1.8h1.88l-1.48 1.13.58 1.8-1.52-1.12-1.53 1.12.58-1.8-1.51-1.12zm1.17 15.65h1.88l-1.48 1.12.58 1.8-1.52-1.11-1.53 1.11.58-1.8-1.51-1.12h1.88l.59-1.8.58 1.8zm-3.77 5.74-1.52 1.1.58 1.8-1.52-1.11-1.52 1.11.58-1.8-1.52-1.1h1.88l.58-1.8.58 1.8z" fill="#fc0" fill-rule="nonzero"/><g fill="#515560" transform="translate(83.0455 5.3809)"><path d="m.9545 36.6193v-36.006h26.697v6.091h-19.426v7.982h18.076v6.067h-18.076v9.8h20.115v6.066z"/><path d="m63.5855 25.616c-1.08 3.93-2.878 6.848-5.391 8.756-2.513 1.907-5.702 2.862-9.566 2.862-4.781 0-8.711-1.634-11.789-4.9-3.079-3.267-4.617-7.733-4.617-13.398 0-5.993 1.546-10.647 4.641-13.963s7.163-4.973 12.206-4.973c4.405 0 7.983 1.301 10.734 3.904 1.636 1.54 2.865 3.75 3.684 6.632l-7.196 1.719c-.427-1.866-1.315-3.34-2.665-4.421-1.351-1.08-2.993-1.62-4.925-1.62-2.669 0-4.834.957-6.496 2.873s-2.493 5.019-2.493 9.308c0 4.552.819 7.795 2.456 9.726 1.638 1.932 3.766 2.899 6.386 2.899 1.932 0 3.593-.615 4.986-1.843 1.392-1.228 2.391-3.159 2.996-5.796z"/></g></g></svg>